<svg width="17" height="16" viewBox="0 0 17 16" fill="none" xmlns="http://www.w3.org/2000/svg">
<path d="M7.99953 16C5.87734 16.0019 3.84152 15.1597 2.3409 13.6591C0.840285 12.1585 -0.00190607 10.1227 3.23932e-06 8.00046V7.84047C0.0654298 4.63444 2.03812 1.77695 5.0128 0.579348C7.98747 -0.618258 11.3898 0.0752435 13.6584 2.3416C15.9482 4.62953 16.6336 8.07193 15.3946 11.0624C14.1556 14.0528 11.2365 16.0019 7.99953 16ZM7.99954 9.1284L10.0714 11.2003L11.1993 10.0723L9.12747 8.00046L11.1993 5.92859L10.0714 4.80065L7.99954 6.87253L5.92766 4.80065L4.79972 5.92859L6.8716 8.00046L4.79972 10.0723L5.92766 11.2003L7.99954 9.1284Z" fill="#CCCCCC"/>
</svg>
